<?xml version="1.0" encoding="utf-8"?>
<!-- Generator: Adobe Illustrator 27.7.0, SVG Export Plug-In . SVG Version: 6.00 Build 0)  -->
<svg version="1.1" id="Layer_1" xmlns="http://www.w3.org/2000/svg" xmlns:xlink="http://www.w3.org/1999/xlink" x="0px" y="0px"
	 viewBox="0 0 2487.4 1550.3" style="enable-background:new 0 0 2487.4 1550.3;" xml:space="preserve">
<style type="text/css">
	.st0{fill:#ED1C24;}
	.st1{fill:none;stroke:#FFFFFF;stroke-width:33;stroke-miterlimit:10;}
</style>
<path class="st0" d="M1633.4,1341.3c-18.6,0-37.5-3.2-55.6-9.8c-63.9-23.4-106.9-84.9-106.9-152.9V732.9l-103,121.8
	c-31,36.6-76.4,57.6-124.3,57.6l0,0c-48,0-93.3-21-124.3-57.6l-103-121.8v441.8c0,68.1-43,129.5-106.9,152.9
	c-63.9,23.4-136.4,4.1-180.3-47.8L6.9,425.3l225.6-190.7L721,812.7V371.2c0-68,43-129.5,106.9-152.9s136.4-4.3,180.3,47.8
	l235.6,278.4l235.6-278.4c43.9-51.9,116.4-71.1,180.3-47.8c49.2,18.1,86,58.7,100.3,107.4l107.9-91.3l195.4,230.8L2255,238.3
	L2480.5,429l-292.9,346.7c0,0,0,0-0.1,0.1l-429.2,507.8c-31.4,37.3-77.6,57.6-124.7,57.6L1633.4,1341.3z M1766.2,571.8v244.6
	L1869.6,694L1766.2,571.8z"/>
<path class="st1" d="M1772.9,314c0,0,295.7,397.9,301.8,390.9l304.9-361.3l-734.2,869.3c-9.2,10.8-26.7,4.4-26.7-9.8V395.7
	c0-14.1-17.6-20.6-26.7-9.8l-336.7,397.9c-6.1,7.2-17,7.2-23.2,0L895.4,385.9c-9.2-10.8-26.7-4.4-26.7,9.8v803.5
	c0,14.1-17.6,20.6-26.7,9.8L107.7,339.7"/>
</svg>
