<?xml version="1.0" encoding="UTF-8"?>
<svg id="Layer_1" data-name="Layer 1" xmlns="http://www.w3.org/2000/svg" viewBox="0 0 2487.39 1550.31">
  <defs>
    <style>
      .cls-1 {
        fill: #ed1c24;
      }

      .cls-2 {
        fill: none;
        stroke: #fff;
        stroke-miterlimit: 10;
        stroke-width: 4px;
      }
    </style>
  </defs>
  <path class="cls-1" d="m1190.44,778.15c-1.4,0-2.82-.24-4.18-.74-4.8-1.76-8.03-6.38-8.03-11.49v-33.48l-7.74,9.15c-2.33,2.75-5.74,4.33-9.34,4.33h0c-3.61,0-7.01-1.58-9.34-4.33l-7.74-9.15v33.2c0,5.12-3.23,9.73-8.03,11.49-4.8,1.76-10.25.31-13.55-3.59l-54.27-64.22,16.95-14.33,36.71,43.44v-33.17c0-5.11,3.23-9.73,8.03-11.49,4.8-1.76,10.25-.32,13.55,3.59l17.7,20.92,17.7-20.92c3.3-3.9,8.75-5.34,13.55-3.59,3.7,1.36,6.46,4.41,7.54,8.07l8.11-6.86,14.68,17.34,14.41-17.05,16.95,14.33-22.01,26.05s0,0-.01.01l-32.25,38.16c-2.36,2.8-5.83,4.33-9.37,4.33Zm9.98-57.82v18.38l7.77-9.2-7.77-9.18Z"/>
  <path class="cls-2" d="m1201.55,700.47s21.59,28.54,22.05,28.01l22.01-26.05-54.27,64.22c-.69.81-2.01.33-2.01-.74v-60.66c0-1.06-1.32-1.55-2.01-.74l-25.3,29.9c-.46.54-1.28.54-1.74,0l-25.3-29.9c-.69-.81-2.01-.33-2.01.74v60.38c0,1.06-1.32,1.55-2.01.74l-54.27-64.22"/>
</svg>